<?xml version="1.0" encoding="UTF-8"?>
<!DOCTYPE svg PUBLIC "-//W3C//DTD SVG 1.1//EN" "http://www.w3.org/Graphics/SVG/1.1/DTD/svg11.dtd">
<!-- Creator: CorelDRAW 2021 (64-Bit) -->
<svg xmlns="http://www.w3.org/2000/svg" xml:space="preserve" width="4.2459mm" height="4.2459mm" version="1.1" style="shape-rendering:geometricPrecision; text-rendering:geometricPrecision; image-rendering:optimizeQuality; fill-rule:evenodd; clip-rule:evenodd"
viewBox="0 0 2.38 2.38"
 xmlns:xlink="http://www.w3.org/1999/xlink"
 xmlns:xodm="http://www.corel.com/coreldraw/odm/2003">
 <defs>
  <style type="text/css">
   <![CDATA[
    .fil1 {fill:url(#id0)}
    .fil0 {fill:url(#id1);fill-rule:nonzero}
   ]]>
  </style>
  <linearGradient id="id0" gradientUnits="userSpaceOnUse" x1="2.36" y1="0.19" x2="0.07" y2="2.31">
   <stop offset="0" style="stop-opacity:1; stop-color:#A37712"/>
   <stop offset="0.439216" style="stop-opacity:1; stop-color:#8A6B23"/>
   <stop offset="1" style="stop-opacity:1; stop-color:#D49911"/>
  </linearGradient>
  <linearGradient id="id1" gradientUnits="userSpaceOnUse" x1="1.49" y1="0.83" x2="0.64" y2="1.85">
   <stop offset="0" style="stop-opacity:1; stop-color:#C59002"/>
   <stop offset="0.270588" style="stop-opacity:1; stop-color:#8F6A0E"/>
   <stop offset="1" style="stop-opacity:1; stop-color:#C48E0F"/>
  </linearGradient>
 </defs>
 <g id="Capa_x0020_1">
  <metadata id="CorelCorpID_0Corel-Layer"/>
  <g id="_1839545645152">
   <path class="fil0" d="M1.12 0.53c-0.16,0 -0.36,0 -0.52,0l0 1.33c0.16,0 0.36,0 0.52,0 0.46,0 0.67,-0.34 0.66,-0.67 -0.01,-0.33 -0.21,-0.65 -0.66,-0.65zm-0.27 0.24l0.27 0c0.29,0 0.41,0.21 0.41,0.41 0.01,0.22 -0.11,0.44 -0.41,0.44l-0.27 0 0 -0.85z"/>
   <path class="fil1" d="M0 0l2.38 0 0 2.38 -2.38 0 0 -2.38zm0.07 0.07l2.24 0 0 2.24 -2.24 0 0 -2.24z"/>
  </g>
 </g>
</svg>
