<?xml version="1.0" encoding="UTF-8"?>
<!DOCTYPE svg PUBLIC "-//W3C//DTD SVG 1.1//EN" "http://www.w3.org/Graphics/SVG/1.1/DTD/svg11.dtd">
<!-- Creator: CorelDRAW 2021 (64-Bit) -->
<svg xmlns="http://www.w3.org/2000/svg" xml:space="preserve" width="139.157mm" height="27.1166mm" version="1.1" style="shape-rendering:geometricPrecision; text-rendering:geometricPrecision; image-rendering:optimizeQuality; fill-rule:evenodd; clip-rule:evenodd"
viewBox="0 0 1157.85 225.62"
 xmlns:xlink="http://www.w3.org/1999/xlink"
 xmlns:xodm="http://www.corel.com/coreldraw/odm/2003">
 <defs>
  <style type="text/css">
   <![CDATA[
    .fil1 {fill:#FEFEFE}
    .fil0 {fill:#FEFEFE;fill-rule:nonzero}
    .fil3 {fill:url(#id0)}
    .fil2 {fill:url(#id1);fill-rule:nonzero}
   ]]>
  </style>
  <linearGradient id="id0" gradientUnits="userSpaceOnUse" x1="223.99" y1="18.11" x2="6.53" y2="219.1">
   <stop offset="0" style="stop-opacity:1; stop-color:#A37712"/>
   <stop offset="0.439216" style="stop-opacity:1; stop-color:#8A6B23"/>
   <stop offset="1" style="stop-opacity:1; stop-color:#D49911"/>
  </linearGradient>
  <linearGradient id="id1" gradientUnits="userSpaceOnUse" x1="141.27" y1="78.48" x2="60.97" y2="175.6">
   <stop offset="0" style="stop-opacity:1; stop-color:#C59002"/>
   <stop offset="0.270588" style="stop-opacity:1; stop-color:#8F6A0E"/>
   <stop offset="1" style="stop-opacity:1; stop-color:#C48E0F"/>
  </linearGradient>
 </defs>
 <g id="Capa_x0020_1">
  <metadata id="CorelCorpID_0Corel-Layer"/>
  <g id="_3178899132976">
   <path class="fil0" d="M305.84 76.65c-9.11,0 -20.02,0 -29.13,0l0 74.26c9.11,0 20.02,0 29.13,0 25.95,0 37.39,-18.96 37.08,-37.76 -0.32,-18.38 -11.65,-36.49 -37.08,-36.49zm-15.25 13.24l15.25 0c16.1,0 22.88,11.56 23.2,23.15 0.32,12.11 -6.36,24.42 -23.2,24.42l-15.25 0 0 -47.56zm190.78 32.8l-36.33 -46.04 -11.33 0 0 74.26 13.98 0 0 -50.07 38.98 50.07 0 0 8.69 0 0 -74.26 -13.98 0 0 46.04zm75.53 0l-36.33 -46.04 -11.34 0 0 74.26 13.98 0 0 -50.07 38.98 50.07 0 0 8.69 0 0 -74.26 -13.98 0 0 46.04zm114.94 14.34c-6.36,6.25 -14.83,9.43 -23.2,9.43 -21.4,0 -32.42,-15.04 -32.63,-32.42 -0.11,-17.8 11.02,-33.05 32.63,-33.05 8.37,0 16.74,3.07 23.09,9.43l3.92 -3.39c-7.42,-7.42 -17.27,-11.12 -27.01,-11.12 -25.42,0 -38.35,18.54 -38.14,38.35 0.11,20.02 13.14,37.5 38.14,37.5 9.75,0 19.6,-3.71 27.01,-11.12l-3.81 -3.6zm75.95 13.88l0 -74.26 -5.72 0 0 35.38 -47.25 0 0 -35.38 -5.72 0 0 74.26 5.72 0 0 -33.69 47.25 0 0 33.69 5.72 0zm21.93 -68.86l45.55 0 0 -5.4 -51.17 0 0 74.26 52.44 0 0 -5.51 -46.82 0 0 -29.24 43.43 0 0 -5.19 -43.43 0 0 -28.92zm116.84 54.98c-6.36,6.25 -14.83,9.43 -23.2,9.43 -21.4,0 -32.42,-15.04 -32.63,-32.42 -0.11,-17.8 11.02,-33.05 32.63,-33.05 8.37,0 16.74,3.07 23.09,9.43l3.92 -3.39c-7.42,-7.42 -17.27,-11.12 -27.01,-11.12 -25.42,0 -38.35,18.54 -38.14,38.35 0.11,20.02 13.14,37.5 38.14,37.5 9.75,0 19.6,-3.71 27.01,-11.12l-3.81 -3.6zm79.02 13.88l-33.26 -74.26 -6.25 0 -33.26 74.26 6.14 0 30.19 -68.73 30.3 68.73 6.14 0zm10.59 -74.26l0 74.26 47.46 0 0 -5.4 -41.74 0 0 -68.86 -5.72 0zm58.26 0l0 74.26 47.46 0 0 -5.4 -41.74 0 0 -68.86 -5.72 0zm123.41 74.26l-33.26 -74.26 -6.25 0 -33.26 74.26 6.14 0 30.19 -68.73 30.3 68.73 6.14 0z"/>
   <circle class="fil1" cx="929.14" cy="129.89" r="5.85"/>
   <circle class="fil1" cx="1121.6" cy="129.89" r="5.85"/>
   <circle class="fil1" cx="385.9" cy="129.89" r="5.91"/>
   <polygon class="fil0" points="411.37,151.6 426.76,151.6 393.2,76.67 377.8,76.67 344.23,151.6 359.52,151.6 385.5,92.42 "/>
  </g>
  <g id="_3178899139312">
   <path class="fil2" d="M105.83 50.02c-15.41,0 -33.86,0 -49.26,0l0 125.58c15.4,0 33.86,0 49.26,0 43.89,0 63.24,-32.07 62.7,-63.86 -0.54,-31.08 -19.7,-61.71 -62.7,-61.71zm-25.8 22.39l25.8 0c27.23,0 38.69,19.55 39.23,39.14 0.54,20.48 -10.75,41.29 -39.23,41.29l-25.8 0 0 -80.44z"/>
   <path class="fil3" d="M-0 0l225.62 0 0 225.62 -225.62 0 0 -225.62zm6.53 6.53l212.57 0 0 212.57 -212.57 0 0 -212.57z"/>
  </g>
 </g>
</svg>
